<?xml version="1.0" standalone="no"?><!DOCTYPE svg PUBLIC "-//W3C//DTD SVG 1.1//EN" "http://www.w3.org/Graphics/SVG/1.1/DTD/svg11.dtd"><svg t="1777454229800" class="icon" viewBox="0 0 1024 1024" version="1.1" xmlns="http://www.w3.org/2000/svg" p-id="1677" xmlns:xlink="http://www.w3.org/1999/xlink" width="200" height="200"><path d="M989.866667 225.28H691.350187l-8.738134 0.129707c-98.79552 2.9696-190.11584 55.93088-218.50112 144.40448h231.615147l1.774933-4.553387c1.119573-2.812587 2.143573-5.256533 3.345067-7.918933 32.085333-72.021333 88.337067-103.990613 170.837333-111.616 35.034453-3.229013 68.676267-5.5296 89.565867-7.420587 15.455573-1.399467 25.818453-2.70336 28.617387-13.02528zM689.124693 397.632853H34.133333c0.402773 2.921813 4.867413 27.211093 36.47488 31.750827 66.9696 9.673387 164.47488 20.8896 229.74464 60.04736 58.477227 35.089067 83.729067 87.524693 70.260054 169.970347-9.693867 59.10528-35.116373 134.765227-35.116374 134.765226 131.208533 0 241.179307-102.87104 288.23552-222.624426 22.40512-57.739947 44.19584-115.712 65.365334-173.909334h0.027306z" fill="#2aa515" p-id="1678"></path></svg>